<svg xmlns="http://www.w3.org/2000/svg" version="1.1" xmlns:xlink="http://www.w3.org/1999/xlink" xmlns:svgjs="http://svgjs.com/svgjs" width="1920" height="1080" preserveAspectRatio="none" viewBox="0 0 1920 1080">
    <g mask="url(&quot;#SvgjsMask1059&quot;)" fill="none">
        <rect width="1920" height="1080" x="0" y="0" fill="rgba(24, 24, 24, 1)"></rect>
        <path d="M0,802.114C148.432,793.11,270.476,695.89,394.328,613.586C516.333,532.51,653.428,459.445,715.397,326.711C777.555,193.571,766.545,37.333,729.774,-104.926C695.43,-237.796,611.796,-348.904,515.491,-446.676C423.931,-539.631,317.047,-616.694,191.322,-651.582C66.758,-686.148,-62.537,-671.014,-188.518,-642.034C-321.084,-611.539,-477.039,-592.222,-554.08,-480.113C-630.803,-368.467,-557.716,-216.99,-573.098,-82.399C-587.862,46.781,-667.595,165.839,-642.486,293.413C-614.334,436.447,-540.61,572.873,-426.319,663.365C-306.733,758.05,-152.252,811.349,0,802.114" fill="#121212"></path>
        <path d="M1920 1796.121C2087.868 1789.476 2269.56 1934.662 2411.399 1844.632 2553.098 1754.69 2514.636 1535.808 2576.1369999999997 1379.6480000000001 2633.352 1234.372 2766.37 1115.222 2760.108 959.211 2753.67 798.829 2642.027 666.533 2542.458 540.637 2438.8869999999997 409.67999999999995 2337.727 246.37599999999998 2173.321 217.26800000000003 2009.848 188.32500000000005 1868.179 322.35400000000004 1718.811 394.812 1594.725 455.006 1462.854 501.39300000000003 1372.615 605.688 1282.414 709.938 1258.743 848.137 1213.8139999999999 978.466 1157.7179999999998 1141.19 1041.103 1296.826 1076.2730000000001 1465.317 1113.221 1642.325 1234.6 1818.548 1402.946 1884.5520000000001 1569.1 1949.6970000000001 1741.672 1803.1799999999998 1920 1796.121" fill="#1e1e1e"></path>
    </g>
    <defs>
        <mask id="SvgjsMask1059">
            <rect width="1920" height="1080" fill="#ffffff"></rect>
        </mask>
    </defs>
</svg>